<?xml version="1.0" encoding="utf-8"?>
<!-- Generator: Adobe Illustrator 27.5.0, SVG Export Plug-In . SVG Version: 6.00 Build 0)  -->
<svg version="1.1" xmlns="http://www.w3.org/2000/svg" xmlns:xlink="http://www.w3.org/1999/xlink" x="0px" y="0px"
	 viewBox="0 0 500 500" style="enable-background:new 0 0 500 500;" xml:space="preserve">
<g id="BACKGROUND">
	<rect style="fill:#FFFFFF;" width="500" height="500"/>
</g>
<g id="OBJECTS">
	<g>
		<g>
			<g>
				<path style="fill:#7D8EA0;" d="M400.163,51.438l-6.47-6.47c-1.026-1.026-2.69-1.026-3.716,0l-39.809,39.809l8.328,8.328
					L400.163,51.438z"/>
			</g>
			<g>
				
					<rect x="368.471" y="54.869" transform="matrix(0.7071 0.7071 -0.7071 0.7071 172.8165 -253.5042)" style="fill:#6DB6C6;" width="47.887" height="53.974"/>
			</g>
			<g>
				<path style="fill:#FEC130;" d="M384.753,119.362c-0.953,0.953-1.435,2.192-1.446,3.443L350.972,90.47
					c-0.872-0.872-1.113-2.215-0.562-3.317c0.229-0.436,0.539-0.861,0.907-1.228c0.379-0.379,0.792-0.677,1.24-0.918
					c1.102-0.551,2.445-0.31,3.317,0.562l32.335,32.335C386.957,117.915,385.717,118.397,384.753,119.362z"/>
			</g>
			<g>
				<path style="fill:#8BD2E7;" d="M355.875,85.571c-0.873-0.873-2.218-1.124-3.315-0.557c-0.446,0.23-0.866,0.534-1.244,0.912
					c-0.373,0.373-0.674,0.79-0.903,1.235c-0.564,1.096-0.313,2.44,0.559,3.312l33.344,33.344l-1.044,1.044L350.18,91.767
					c-0.976-0.976-1.458-2.261-1.458-3.547c0.012-1.251,0.494-2.491,1.446-3.443c0.964-0.964,2.204-1.446,3.455-1.458
					c0.023,0,0.023,0,0.046,0c1.274,0.011,2.537,0.494,3.501,1.458l33.092,33.092l-1.044,1.045L355.875,85.571z"/>
			</g>
			<g>
				<path style="fill:#F69C00;" d="M381.364,116.821l-28.027-28.027c-0.238-0.238-0.238-0.623,0-0.861
					c0.238-0.238,0.623-0.238,0.861,0l28.027,28.027c0.238,0.238,0.238,0.623,0,0.861
					C381.987,117.059,381.601,117.059,381.364,116.821z"/>
			</g>
			<g>
				<polygon style="fill:#C6209A;" points="351.906,102.087 351.714,99.6 349.227,99.408 357.019,91.616 359.698,94.295 				"/>
			</g>
			<g>
				
					<rect x="382.418" y="75.078" transform="matrix(0.7071 0.7071 -0.7071 0.7071 171.41 -256.8999)" style="fill:#FFFFFF;" width="26.784" height="6.764"/>
			</g>
		</g>
		<path style="fill:#FFF2A9;" d="M117.597,182.49c-8.242,13.628-10.478,31.686-2.473,45.456c4.979,8.564,13.474,15,16.916,24.289
			c5.127,13.834-2.413,28.74-8.334,42.254c-13.218,30.169-18.266,67.344,0.221,94.604c9.596,14.151,24.715,24.095,41.081,29.04
			c37.208,11.243,90.831-34.664,99.739-40.844c12.028-8.343,32.945-13.062,47.297-15.943c14.737-2.958,30.169-2.531,44.966,0.114
			c53.464,9.557,79.089-22.307,83.652-30.857c5.066-9.494,3.88-21.484-1.181-30.981c-5.062-9.497-13.54-16.77-22.693-22.43
			c-6.759-4.18-14.192-7.786-19.072-14.058c-7.794-10.015-7.094-23.913-8.46-36.529c-2.378-21.958-12.013-42.519-23.605-61.317
			c-5.363-8.697-11.26-17.217-18.961-23.932c-11.641-10.151-26.735-15.565-41.909-18.446c-27.521-5.226-55.84-2.655-82.933,3.742
			c-23.692,5.594-51.43,12.547-72.039,25.941C137.562,160.551,125.26,169.82,117.597,182.49z"/>
		<path style="fill:#FEC130;" d="M348.887,398.385h-2.789c-0.277-1.198-0.749-2.317-1.377-3.331l1.97-1.97
			c0.434-0.433,0.434-1.136,0-1.57l-2.046-2.048c-0.434-0.434-1.137-0.434-1.571,0l-1.973,1.973
			c-1.014-0.633-2.133-1.104-3.331-1.381v-2.786c0-0.613-0.497-1.11-1.11-1.11h-2.892c-0.613,0-1.11,0.497-1.11,1.11v2.786
			c-1.198,0.277-2.317,0.749-3.331,1.381l-1.973-1.973c-0.434-0.434-1.137-0.434-1.571,0l-2.046,2.048
			c-0.433,0.434-0.433,1.136,0,1.57l1.97,1.97c-0.629,1.014-1.1,2.133-1.377,3.331h-2.789c-0.613,0-1.11,0.497-1.11,1.11v2.895
			c0,0.613,0.497,1.11,1.11,1.11h2.786c0.277,1.198,0.752,2.32,1.381,3.331l-1.97,1.97c-0.433,0.434-0.434,1.136,0,1.57l2.046,2.048
			c0.434,0.434,1.137,0.434,1.571,0l1.973-1.973c1.014,0.633,2.133,1.104,3.331,1.381v2.789c0,0.613,0.497,1.11,1.11,1.11h2.892
			c0.613,0,1.11-0.497,1.11-1.11v-2.789c1.198-0.277,2.317-0.749,3.331-1.381l1.973,1.973c0.434,0.434,1.137,0.434,1.571,0
			l2.046-2.048c0.433-0.434,0.433-1.136,0-1.57l-1.97-1.97c0.629-1.01,1.104-2.133,1.381-3.331h2.786c0.613,0,1.11-0.497,1.11-1.11
			v-2.895C349.998,398.882,349.501,398.385,348.887,398.385z M340.791,402.902c-0.071,0.206-0.153,0.404-0.247,0.599
			c-0.58,1.209-1.564,2.193-2.773,2.773c-0.194,0.094-0.393,0.176-0.595,0.247c-0.614,0.217-1.272,0.333-1.961,0.333
			s-1.347-0.116-1.961-0.333c-0.202-0.071-0.4-0.153-0.595-0.247c-1.209-0.58-2.193-1.564-2.773-2.773
			c-0.094-0.194-0.176-0.393-0.247-0.599c-0.217-0.614-0.333-1.272-0.333-1.957c0-0.689,0.116-1.347,0.333-1.961
			c0.071-0.206,0.154-0.404,0.251-0.599c0.58-1.209,1.561-2.189,2.769-2.77c0.195-0.094,0.393-0.176,0.599-0.247
			c0.614-0.217,1.273-0.333,1.957-0.333c0.685,0,1.344,0.116,1.957,0.333c0.206,0.071,0.404,0.154,0.599,0.247
			c1.209,0.58,2.189,1.561,2.77,2.77c0.097,0.195,0.18,0.393,0.251,0.599c0.217,0.614,0.333,1.272,0.333,1.961
			C341.124,401.63,341.008,402.289,340.791,402.902z"/>
		<g>
			<circle style="fill:#F69C00;" cx="425.225" cy="276.866" r="33.979"/>
			<circle style="fill:#FEC130;" cx="425.225" cy="276.866" r="29.501"/>
			<path style="fill:#FFFFFF;" d="M428.675,289.424c3.037-3.037,3.045-6.995,0.258-12.598c-2.012-4.124-2.746-6.071-1.371-7.446
				c1.12-1.12,3.207-0.951,5.535,1.376c1.112,1.112,1.941,2.218,2.561,3.22c0.908,1.465,2.738,2.057,4.137,1.312
				c1.411-0.752,1.852-2.584,0.927-4.059c-0.784-1.25-1.83-2.607-3.196-4.019l4.226-4.226c0.73-0.73,0.73-1.914,0-2.644
				c-0.73-0.73-1.914-0.73-2.644,0l-4.399,4.399c-4.876-3.541-9.852-3.511-12.992-0.372c-3.134,3.134-2.543,7.69,0.159,12.887
				c1.928,3.782,2.289,5.679,0.946,7.021c-1.407,1.407-3.639,1.029-6.107-1.438c-1.328-1.328-2.408-2.858-3.231-4.321
				c-0.875-1.555-2.826-2.154-4.25-1.338l-0.076,0.043c-1.342,0.77-1.735,2.524-0.882,3.975c0.999,1.7,2.43,3.628,4.123,5.322
				c0.091,0.091,0.182,0.168,0.273,0.257l-3.974,3.974c-0.73,0.73-0.73,1.914,0,2.644c0.73,0.73,1.914,0.73,2.644,0l4.208-4.208
				C420.856,292.927,425.65,292.448,428.675,289.424z"/>
		</g>
		<g>
			<g>
				<polygon style="fill:#8BD2E7;" points="61.73,113.036 86.196,112.011 125.149,84.529 94.636,114.142 116.009,128.928 
					132.005,77.536 				"/>
				<polygon style="fill:#6DB6C6;" points="86.196,112.011 92.947,132.167 94.636,114.142 125.149,84.529 				"/>
				<polygon style="fill:#7D8EA0;" points="92.947,132.167 102.283,119.432 94.636,114.142 				"/>
			</g>
			<g>
				<g>
					<path style="fill:#D98490;" d="M85.848,138.598c-0.249,0-0.499-0.092-0.692-0.278c-0.398-0.382-0.412-1.016-0.029-1.414
						l0.354-0.366c0.386-0.395,1.02-0.402,1.414-0.018c0.396,0.386,0.403,1.019,0.018,1.414l-0.343,0.354
						C86.373,138.495,86.11,138.598,85.848,138.598z"/>
				</g>
				<g>
					<path style="fill:#D98490;" d="M178.406,308.517c-0.548,0-0.995-0.442-1-0.991c-0.005-0.552,0.439-1.004,0.991-1.009
						c0.329-0.003,0.66-0.008,0.993-0.015c0.007,0,0.014,0,0.021,0c0.543,0,0.988,0.434,1,0.979
						c0.011,0.553-0.428,1.009-0.979,1.021c-0.341,0.007-0.68,0.012-1.016,0.015C178.412,308.517,178.409,308.517,178.406,308.517z
						 M174.408,308.466c-0.013,0-0.025,0-0.038-0.001l-1.013-0.042c-0.552-0.026-0.978-0.494-0.952-1.046
						c0.026-0.552,0.503-0.979,1.046-0.952l0.994,0.042c0.552,0.021,0.982,0.484,0.962,1.037
						C175.386,308.043,174.943,308.466,174.408,308.466z M183.405,308.343c-0.525,0-0.966-0.41-0.997-0.941
						c-0.033-0.551,0.388-1.024,0.939-1.057l0.995-0.063c0.543-0.023,1.027,0.38,1.064,0.932c0.037,0.551-0.38,1.027-0.931,1.064
						l-1.01,0.063C183.445,308.342,183.425,308.343,183.405,308.343z M169.422,308.128c-0.034,0-0.068-0.002-0.103-0.005
						c-0.34-0.035-0.677-0.071-1.011-0.11c-0.548-0.064-0.942-0.56-0.879-1.107c0.064-0.549,0.562-0.944,1.108-0.879
						c0.326,0.037,0.654,0.073,0.985,0.106c0.549,0.057,0.949,0.547,0.893,1.097C170.364,307.744,169.929,308.128,169.422,308.128z
						 M164.479,307.44c-0.06,0-0.12-0.005-0.181-0.017c-0.336-0.061-0.669-0.123-1.001-0.188c-0.542-0.108-0.894-0.634-0.787-1.176
						c0.107-0.541,0.631-0.892,1.175-0.787c0.321,0.063,0.645,0.125,0.972,0.185c0.544,0.099,0.903,0.62,0.804,1.163
						C165.374,307.103,164.953,307.44,164.479,307.44z M159.612,306.343c-0.087,0-0.176-0.012-0.265-0.035
						c-0.331-0.091-0.658-0.185-0.983-0.28c-0.53-0.155-0.833-0.711-0.677-1.241c0.156-0.529,0.712-0.837,1.242-0.677
						c0.313,0.092,0.629,0.182,0.947,0.268c0.533,0.147,0.846,0.696,0.7,1.229C160.455,306.051,160.052,306.343,159.612,306.343z
						 M154.876,304.786c-0.121,0-0.244-0.022-0.363-0.068c-0.32-0.124-0.637-0.252-0.95-0.382c-0.511-0.211-0.753-0.796-0.543-1.306
						c0.211-0.51,0.796-0.754,1.306-0.542c0.301,0.124,0.605,0.246,0.912,0.366c0.515,0.2,0.77,0.78,0.569,1.295
						C155.654,304.544,155.276,304.786,154.876,304.786z M150.339,302.723c-0.157,0-0.316-0.037-0.464-0.115
						c-0.305-0.16-0.606-0.323-0.904-0.489c-0.482-0.269-0.655-0.878-0.386-1.36c0.268-0.483,0.877-0.655,1.36-0.386
						c0.283,0.158,0.57,0.313,0.86,0.466c0.489,0.257,0.677,0.861,0.42,1.35C151.046,302.528,150.699,302.723,150.339,302.723z
						 M146.079,300.139c-0.196,0-0.394-0.058-0.568-0.178c-0.283-0.195-0.563-0.396-0.839-0.598
						c-0.445-0.327-0.542-0.952-0.215-1.398c0.328-0.445,0.952-0.543,1.398-0.216c0.262,0.192,0.526,0.381,0.794,0.566
						c0.454,0.314,0.568,0.936,0.253,1.391C146.708,299.988,146.396,300.139,146.079,300.139z M142.166,297.053
						c-0.237,0-0.476-0.084-0.666-0.255c-0.256-0.229-0.508-0.46-0.758-0.693c-0.403-0.378-0.423-1.011-0.045-1.414
						c0.378-0.401,1.012-0.422,1.414-0.045c0.238,0.224,0.479,0.443,0.723,0.662c0.412,0.368,0.447,1,0.079,1.412
						C142.714,296.94,142.441,297.053,142.166,297.053z M138.647,293.518c-0.275,0-0.549-0.113-0.747-0.334
						c-0.227-0.255-0.452-0.514-0.674-0.775c-0.358-0.42-0.307-1.052,0.114-1.409c0.42-0.357,1.052-0.308,1.41,0.114
						c0.212,0.248,0.426,0.495,0.643,0.738c0.368,0.412,0.331,1.045-0.081,1.412C139.122,293.434,138.884,293.518,138.647,293.518z
						 M135.529,289.612c-0.312,0-0.618-0.145-0.814-0.417c-0.198-0.276-0.395-0.555-0.588-0.835
						c-0.314-0.454-0.201-1.077,0.253-1.391c0.454-0.315,1.077-0.201,1.392,0.254c0.187,0.271,0.377,0.539,0.568,0.806
						c0.322,0.448,0.219,1.073-0.229,1.396C135.935,289.552,135.731,289.612,135.529,289.612z M132.798,285.429
						c-0.341,0-0.673-0.174-0.86-0.488c-0.174-0.292-0.345-0.586-0.515-0.882c-0.274-0.479-0.108-1.091,0.372-1.365
						c0.48-0.275,1.09-0.108,1.365,0.371c0.163,0.286,0.329,0.57,0.497,0.852c0.282,0.475,0.126,1.089-0.348,1.371
						C133.148,285.384,132.972,285.429,132.798,285.429z M130.407,281.038c-0.368,0-0.721-0.203-0.896-0.554
						c-0.15-0.302-0.3-0.607-0.448-0.911c-0.241-0.497-0.034-1.095,0.463-1.336c0.497-0.24,1.095-0.033,1.336,0.463
						c0.145,0.299,0.292,0.596,0.439,0.892c0.246,0.494,0.045,1.095-0.449,1.342C130.709,281.005,130.557,281.038,130.407,281.038z
						 M128.303,276.501c-0.387,0-0.755-0.226-0.918-0.604c-0.134-0.31-0.266-0.622-0.397-0.935
						c-0.213-0.509,0.026-1.095,0.536-1.309c0.508-0.217,1.095,0.026,1.309,0.535c0.129,0.307,0.258,0.611,0.389,0.915
						c0.219,0.508-0.015,1.096-0.522,1.314C128.569,276.475,128.435,276.501,128.303,276.501z M126.427,271.862
						c-0.404,0-0.784-0.246-0.935-0.647l-0.355-0.947c-0.192-0.518,0.072-1.093,0.589-1.285c0.518-0.195,1.093,0.072,1.286,0.59
						l0.351,0.936c0.196,0.516-0.064,1.093-0.581,1.289C126.664,271.842,126.544,271.862,126.427,271.862z M124.73,267.151
						c-0.416,0-0.803-0.261-0.946-0.675l-0.326-0.957c-0.176-0.522,0.105-1.09,0.628-1.267c0.523-0.181,1.091,0.104,1.267,0.628
						l0.322,0.945c0.179,0.522-0.099,1.092-0.621,1.271C124.947,267.134,124.838,267.151,124.73,267.151z M123.161,262.397
						c-0.423,0-0.816-0.271-0.952-0.696l-0.305-0.962c-0.166-0.527,0.127-1.089,0.654-1.254c0.527-0.165,1.088,0.127,1.254,0.654
						l0.302,0.954c0.168,0.526-0.123,1.089-0.649,1.257C123.364,262.382,123.262,262.397,123.161,262.397z M121.678,257.615
						c-0.429,0-0.826-0.278-0.957-0.711l-0.291-0.964c-0.159-0.528,0.141-1.087,0.669-1.246c0.529-0.156,1.086,0.142,1.246,0.67
						l0.291,0.962c0.16,0.528-0.139,1.086-0.667,1.246C121.871,257.602,121.774,257.615,121.678,257.615z M120.241,252.817
						c-0.431,0-0.829-0.28-0.958-0.715l-0.286-0.963c-0.158-0.529,0.144-1.086,0.673-1.243c0.526-0.156,1.086,0.143,1.244,0.673
						l0.286,0.963c0.157,0.529-0.144,1.086-0.673,1.244C120.431,252.804,120.335,252.817,120.241,252.817z M118.811,248.019
						c-0.431,0-0.829-0.28-0.958-0.715l-0.288-0.96c-0.159-0.529,0.14-1.087,0.669-1.246c0.527-0.159,1.087,0.14,1.246,0.669
						l0.289,0.967c0.157,0.529-0.144,1.086-0.673,1.244C119.002,248.005,118.906,248.019,118.811,248.019z M117.357,243.227
						c-0.427,0-0.822-0.276-0.955-0.705l-0.297-0.958c-0.165-0.527,0.13-1.088,0.657-1.252c0.527-0.164,1.088,0.13,1.252,0.657
						l0.298,0.962c0.164,0.527-0.132,1.087-0.66,1.25C117.555,243.212,117.455,243.227,117.357,243.227z M115.842,238.443
						c-0.421,0-0.813-0.268-0.951-0.69l-0.314-0.956c-0.173-0.524,0.112-1.09,0.636-1.263c0.523-0.171,1.089,0.112,1.263,0.636
						l0.316,0.961c0.171,0.525-0.115,1.089-0.64,1.261C116.049,238.427,115.944,238.443,115.842,238.443z M114.234,233.692
						c-0.413,0-0.799-0.258-0.943-0.669l-0.335-0.944c-0.186-0.52,0.085-1.092,0.605-1.278c0.52-0.183,1.093,0.085,1.278,0.606
						l0.338,0.954c0.183,0.521-0.091,1.092-0.612,1.275C114.456,233.673,114.344,233.692,114.234,233.692z M112.505,228.989
						c-0.402,0-0.781-0.245-0.934-0.642l-0.361-0.93c-0.202-0.514,0.051-1.095,0.565-1.296c0.515-0.203,1.095,0.051,1.296,0.565
						l0.367,0.945c0.198,0.516-0.06,1.094-0.575,1.292C112.745,228.968,112.624,228.989,112.505,228.989z M110.624,224.351
						c-0.388,0-0.757-0.228-0.92-0.607l-0.396-0.915c-0.222-0.506,0.009-1.096,0.515-1.317c0.508-0.221,1.096,0.009,1.317,0.515
						l0.402,0.93c0.217,0.508-0.018,1.096-0.526,1.313C110.889,224.324,110.756,224.351,110.624,224.351z M108.56,219.792
						c-0.372,0-0.729-0.209-0.901-0.566l-0.436-0.895c-0.244-0.495-0.041-1.095,0.455-1.339c0.496-0.246,1.095-0.04,1.339,0.455
						l0.443,0.911c0.24,0.498,0.03,1.095-0.467,1.335C108.853,219.76,108.705,219.792,108.56,219.792z M106.282,215.338
						c-0.354,0-0.698-0.189-0.879-0.521c-0.159-0.291-0.318-0.581-0.48-0.87c-0.27-0.482-0.098-1.091,0.384-1.361
						c0.483-0.27,1.092-0.098,1.361,0.384c0.166,0.296,0.329,0.593,0.491,0.89c0.265,0.485,0.085,1.092-0.399,1.356
						C106.608,215.299,106.444,215.338,106.282,215.338z M65.466,214.577c-0.326,0-0.641-0.014-0.949-0.042
						c-0.55-0.049-0.956-0.535-0.907-1.085c0.049-0.55,0.527-0.951,1.085-0.907c0.249,0.022,0.506,0.034,0.77,0.034l0.132-0.001
						c0.004,0,0.007,0,0.011,0c0.547,0,0.994,0.441,0.999,0.99c0.005,0.552-0.438,1.005-0.99,1.01L65.466,214.577z M69.537,213.897
						c-0.426,0-0.821-0.275-0.954-0.703c-0.164-0.527,0.13-1.088,0.657-1.252c0.296-0.092,0.597-0.194,0.905-0.307
						c0.52-0.189,1.093,0.076,1.283,0.595c0.19,0.518-0.076,1.093-0.595,1.283c-0.34,0.125-0.673,0.237-0.999,0.338
						C69.735,213.882,69.635,213.897,69.537,213.897z M60.894,213.201c-0.204,0-0.41-0.062-0.588-0.192
						c-0.307-0.224-0.602-0.474-0.876-0.743c-0.394-0.387-0.4-1.02-0.013-1.415c0.387-0.395,1.02-0.4,1.415-0.013
						c0.205,0.201,0.424,0.388,0.653,0.554c0.446,0.325,0.544,0.951,0.219,1.397C61.507,213.059,61.203,213.201,60.894,213.201z
						 M74.118,211.901c-0.347,0-0.684-0.181-0.869-0.503c-0.274-0.479-0.108-1.09,0.371-1.365c0.277-0.159,0.542-0.323,0.794-0.492
						c0.458-0.308,1.08-0.186,1.387,0.274c0.308,0.458,0.185,1.08-0.274,1.387c-0.29,0.194-0.594,0.383-0.913,0.566
						C74.457,211.859,74.287,211.901,74.118,211.901z M103.764,211.012c-0.333,0-0.66-0.167-0.849-0.47
						c-0.176-0.282-0.353-0.563-0.532-0.842c-0.297-0.465-0.161-1.084,0.304-1.381c0.467-0.296,1.085-0.16,1.381,0.304
						c0.183,0.286,0.363,0.572,0.542,0.86c0.293,0.469,0.15,1.085-0.318,1.378C104.128,210.963,103.945,211.012,103.764,211.012z
						 M58.088,209.159c-0.418,0-0.809-0.265-0.949-0.684c-0.114-0.341-0.213-0.692-0.299-1.052
						c-0.127-0.537,0.205-1.076,0.742-1.204c0.536-0.128,1.076,0.204,1.204,0.742c0.071,0.302,0.155,0.595,0.25,0.88
						c0.175,0.524-0.108,1.09-0.632,1.266C58.3,209.142,58.193,209.159,58.088,209.159z M77.834,208.618
						c-0.198,0-0.398-0.059-0.572-0.18c-0.453-0.316-0.563-0.939-0.247-1.393c0.173-0.248,0.333-0.503,0.478-0.764
						c0.268-0.482,0.875-0.657,1.359-0.389c0.483,0.268,0.657,0.877,0.389,1.359c-0.178,0.321-0.373,0.634-0.586,0.939
						C78.46,208.469,78.15,208.618,77.834,208.618z M100.983,206.844c-0.312,0-0.62-0.146-0.815-0.419
						c-0.192-0.269-0.387-0.537-0.584-0.804c-0.328-0.445-0.233-1.071,0.212-1.398c0.445-0.328,1.07-0.233,1.398,0.212
						c0.203,0.275,0.403,0.551,0.601,0.829c0.321,0.449,0.217,1.074-0.233,1.395C101.387,206.783,101.184,206.844,100.983,206.844z
						 M57.46,204.22c-0.013,0-0.027-0.001-0.04-0.001c-0.552-0.022-0.981-0.487-0.959-1.039c0.014-0.35,0.038-0.703,0.072-1.058
						c0.053-0.55,0.544-0.949,1.091-0.9c0.55,0.053,0.953,0.541,0.9,1.091c-0.031,0.318-0.052,0.634-0.065,0.947
						C58.437,203.798,57.994,204.22,57.46,204.22z M79.608,203.988c-0.049,0-0.099-0.003-0.149-0.011
						c-0.546-0.082-0.923-0.591-0.842-1.137c0.046-0.306,0.081-0.617,0.108-0.934c0.046-0.55,0.526-0.962,1.08-0.913
						c0.55,0.046,0.959,0.53,0.913,1.08c-0.03,0.36-0.071,0.714-0.123,1.062C80.521,203.632,80.095,203.988,79.608,203.988z
						 M97.933,202.878c-0.288,0-0.574-0.124-0.771-0.363c-0.21-0.254-0.422-0.507-0.636-0.758c-0.358-0.42-0.307-1.052,0.114-1.41
						c0.42-0.358,1.052-0.306,1.41,0.114c0.22,0.259,0.439,0.519,0.655,0.781c0.352,0.426,0.292,1.056-0.134,1.408
						C98.383,202.803,98.157,202.878,97.933,202.878z M58.317,199.301c-0.098,0-0.196-0.015-0.294-0.044
						c-0.528-0.163-0.824-0.722-0.662-1.25c0.103-0.334,0.214-0.667,0.333-1c0.188-0.519,0.76-0.788,1.28-0.601
						c0.52,0.188,0.789,0.761,0.602,1.28c-0.109,0.302-0.21,0.604-0.303,0.909C59.141,199.024,58.745,199.301,58.317,199.301z
						 M94.618,199.132c-0.265,0-0.53-0.105-0.726-0.313c-0.23-0.243-0.459-0.482-0.687-0.718c-0.384-0.396-0.375-1.029,0.022-1.414
						c0.396-0.384,1.029-0.375,1.414,0.023c0.233,0.24,0.467,0.485,0.703,0.734c0.38,0.401,0.362,1.034-0.039,1.414
						C95.112,199.041,94.865,199.132,94.618,199.132z M79.651,198.997c-0.509,0-0.944-0.386-0.994-0.902
						c-0.031-0.32-0.068-0.643-0.11-0.97c-0.07-0.547,0.318-1.048,0.866-1.118c0.544-0.075,1.048,0.317,1.118,0.865
						c0.044,0.346,0.083,0.689,0.117,1.027c0.054,0.55-0.348,1.039-0.898,1.093C79.716,198.995,79.683,198.997,79.651,198.997z
						 M91.054,195.62c-0.24,0-0.48-0.086-0.672-0.26c-0.247-0.224-0.492-0.444-0.736-0.658c-0.415-0.364-0.456-0.997-0.092-1.411
						c0.365-0.415,0.998-0.456,1.411-0.092c0.253,0.222,0.507,0.449,0.762,0.681c0.409,0.372,0.439,1.004,0.068,1.413
						C91.597,195.51,91.326,195.62,91.054,195.62z M60.346,194.739c-0.176,0-0.354-0.046-0.516-0.144
						c-0.473-0.285-0.625-0.9-0.34-1.373c0.182-0.302,0.372-0.599,0.57-0.891c0.311-0.456,0.932-0.576,1.389-0.267
						c0.457,0.309,0.577,0.932,0.267,1.389c-0.178,0.263-0.349,0.531-0.512,0.802C61.016,194.566,60.685,194.739,60.346,194.739z
						 M78.859,194.057c-0.465,0-0.881-0.326-0.979-0.798c-0.066-0.321-0.135-0.645-0.207-0.972c-0.118-0.539,0.224-1.072,0.764-1.19
						c0.537-0.116,1.072,0.224,1.19,0.764c0.073,0.334,0.144,0.666,0.212,0.995c0.111,0.541-0.237,1.07-0.778,1.181
						C78.993,194.051,78.926,194.057,78.859,194.057z M87.196,192.436c-0.207,0-0.415-0.063-0.593-0.196
						c-0.267-0.197-0.532-0.388-0.795-0.573c-0.452-0.317-0.562-0.941-0.245-1.393c0.317-0.452,0.941-0.563,1.393-0.244
						c0.277,0.194,0.555,0.394,0.835,0.601c0.444,0.329,0.538,0.955,0.21,1.399C87.805,192.296,87.503,192.436,87.196,192.436z
						 M63.476,190.853c-0.268,0-0.536-0.107-0.733-0.32c-0.375-0.405-0.352-1.037,0.053-1.413c0.26-0.242,0.529-0.476,0.804-0.701
						c0.427-0.35,1.057-0.287,1.407,0.142c0.35,0.428,0.286,1.058-0.142,1.407c-0.243,0.198-0.479,0.405-0.709,0.618
						C63.963,190.765,63.719,190.853,63.476,190.853z M82.989,189.734c-0.161,0-0.325-0.039-0.477-0.121
						c-0.289-0.157-0.575-0.306-0.86-0.448c-0.494-0.246-0.695-0.847-0.448-1.341c0.246-0.494,0.846-0.695,1.341-0.448
						c0.304,0.152,0.611,0.311,0.921,0.479c0.485,0.264,0.665,0.871,0.401,1.356C83.687,189.545,83.344,189.734,82.989,189.734z
						 M77.74,189.178c-0.451,0-0.86-0.307-0.971-0.765l-0.237-0.974c-0.041-0.166-0.037-0.333,0.003-0.487
						c-0.104-0.207-0.136-0.45-0.075-0.692c0.136-0.535,0.681-0.856,1.215-0.725c0.335,0.085,0.674,0.179,1.017,0.285
						c0.527,0.163,0.823,0.723,0.661,1.251c-0.104,0.338-0.372,0.581-0.689,0.669l0.05,0.204c0.129,0.537-0.2,1.077-0.737,1.207
						C77.896,189.169,77.818,189.178,77.74,189.178z M67.63,188.111c-0.386,0-0.754-0.225-0.918-0.602
						c-0.22-0.507,0.013-1.096,0.52-1.315c0.327-0.142,0.66-0.273,1-0.392c0.521-0.185,1.092,0.09,1.275,0.611
						c0.183,0.521-0.09,1.092-0.611,1.275c-0.295,0.104-0.585,0.217-0.869,0.34C67.898,188.084,67.763,188.111,67.63,188.111z
						 M72.472,186.982c-0.528,0-0.97-0.415-0.998-0.948c-0.029-0.552,0.396-1.022,0.947-1.05c0.272-0.014,0.547-0.021,0.825-0.022
						l0.251,0.002c0.552,0.011,0.991,0.467,0.981,1.019c-0.011,0.546-0.456,0.981-0.999,0.981c-0.007,0-0.013,0-0.02,0l-0.21-0.002
						c-0.243,0.001-0.484,0.007-0.723,0.019C72.507,186.982,72.49,186.982,72.472,186.982z M76.56,184.313
						c-0.453,0-0.863-0.309-0.972-0.769l-0.23-0.984c-0.124-0.538,0.211-1.075,0.749-1.199c0.534-0.125,1.075,0.21,1.199,0.749
						l0.228,0.973c0.127,0.537-0.205,1.076-0.742,1.204C76.714,184.304,76.636,184.313,76.56,184.313z M75.486,179.423
						c-0.467,0-0.885-0.329-0.979-0.804c-0.066-0.331-0.13-0.664-0.193-0.998c-0.102-0.542,0.255-1.065,0.798-1.167
						c0.544-0.101,1.065,0.256,1.167,0.798c0.061,0.326,0.124,0.651,0.188,0.975c0.108,0.542-0.243,1.068-0.784,1.177
						C75.617,179.417,75.551,179.423,75.486,179.423z M74.652,174.489c-0.492,0-0.921-0.363-0.989-0.864
						c-0.046-0.337-0.089-0.674-0.13-1.013c-0.066-0.548,0.325-1.046,0.874-1.112c0.548-0.062,1.046,0.325,1.112,0.874
						c0.039,0.327,0.081,0.654,0.126,0.98c0.075,0.547-0.308,1.052-0.855,1.126C74.743,174.486,74.697,174.489,74.652,174.489z
						 M74.181,169.505c-0.529,0-0.971-0.415-0.998-0.949c-0.018-0.342-0.032-0.684-0.042-1.027c-0.017-0.552,0.417-1.013,0.969-1.03
						c0.548-0.038,1.013,0.417,1.03,0.969c0.01,0.33,0.024,0.658,0.04,0.986c0.028,0.551-0.396,1.021-0.948,1.049
						C74.215,169.505,74.198,169.505,74.181,169.505z M74.188,164.497c-0.019,0-0.038-0.001-0.056-0.001
						c-0.552-0.031-0.974-0.502-0.943-1.054c0.019-0.342,0.042-0.685,0.069-1.027c0.044-0.551,0.525-0.961,1.076-0.919
						c0.55,0.044,0.961,0.525,0.918,1.076c-0.026,0.327-0.048,0.654-0.066,0.98C75.156,164.085,74.715,164.497,74.188,164.497z
						 M74.765,159.527c-0.059,0-0.119-0.005-0.179-0.016c-0.543-0.099-0.904-0.619-0.806-1.162c0.061-0.337,0.126-0.674,0.196-1.012
						c0.112-0.54,0.643-0.89,1.182-0.775c0.541,0.112,0.888,0.642,0.776,1.183c-0.066,0.32-0.128,0.641-0.187,0.961
						C75.661,159.189,75.239,159.527,74.765,159.527z M75.975,154.676c-0.101,0-0.204-0.016-0.305-0.048
						c-0.526-0.168-0.816-0.731-0.648-1.257c0.104-0.327,0.215-0.653,0.33-0.98c0.184-0.52,0.753-0.793,1.276-0.611
						c0.521,0.184,0.794,0.755,0.611,1.276c-0.109,0.308-0.212,0.616-0.311,0.924C76.791,154.405,76.398,154.676,75.975,154.676z
						 M77.82,150.029c-0.144,0-0.29-0.031-0.429-0.097c-0.498-0.237-0.71-0.833-0.473-1.332c0.147-0.309,0.298-0.617,0.456-0.925
						c0.25-0.492,0.851-0.69,1.345-0.438c0.492,0.251,0.688,0.853,0.438,1.345c-0.148,0.292-0.293,0.584-0.432,0.877
						C78.552,149.818,78.193,150.029,77.82,150.029z M80.252,145.66c-0.185,0-0.371-0.051-0.538-0.158
						c-0.465-0.298-0.601-0.917-0.303-1.382c0.184-0.286,0.372-0.572,0.564-0.858c0.309-0.458,0.93-0.579,1.388-0.271
						c0.458,0.309,0.579,0.93,0.271,1.388c-0.185,0.273-0.364,0.547-0.539,0.82C80.905,145.497,80.582,145.66,80.252,145.66z
						 M83.187,141.61c-0.221,0-0.444-0.073-0.629-0.223c-0.429-0.348-0.495-0.978-0.147-1.407c0.213-0.263,0.432-0.526,0.655-0.79
						c0.357-0.423,0.988-0.474,1.409-0.117c0.422,0.357,0.474,0.988,0.117,1.409c-0.213,0.253-0.423,0.505-0.627,0.757
						C83.767,141.484,83.478,141.61,83.187,141.61z"/>
				</g>
				<g>
					<path style="fill:#D98490;" d="M186.306,308.135c-0.515,0-0.953-0.396-0.996-0.918c-0.045-0.55,0.364-1.033,0.914-1.079
						l0.494-0.042c0.557-0.051,1.035,0.358,1.083,0.908c0.048,0.551-0.358,1.036-0.909,1.084l-0.504,0.044
						C186.361,308.134,186.333,308.135,186.306,308.135z"/>
				</g>
			</g>
		</g>
		<g>
			<path style="fill:#7D8EA0;" d="M149.859,346.867h-4.942c-0.491-2.122-1.326-4.104-2.44-5.901l3.49-3.49
				c0.768-0.768,0.768-2.013,0.001-2.781l-3.624-3.628c-0.768-0.769-2.014-0.769-2.783-0.001l-3.495,3.495
				c-1.797-1.121-3.779-1.956-5.901-2.447v-4.935c0-1.086-0.881-1.967-1.967-1.967h-5.123c-1.086,0-1.967,0.881-1.967,1.967v4.935
				c-2.122,0.491-4.104,1.326-5.901,2.447l-3.495-3.495c-0.769-0.768-2.014-0.768-2.783,0.001l-3.624,3.628
				c-0.768,0.768-0.767,2.013,0.001,2.781l3.49,3.49c-1.114,1.797-1.949,3.779-2.44,5.901h-4.942c-1.086,0-1.967,0.881-1.967,1.967
				v5.13c0,1.086,0.881,1.967,1.967,1.967h4.935c0.491,2.122,1.333,4.111,2.447,5.901l-3.49,3.49
				c-0.768,0.768-0.768,2.013-0.001,2.781l3.624,3.628c0.768,0.769,2.014,0.769,2.783,0.001l3.495-3.495
				c1.797,1.12,3.779,1.956,5.901,2.447v4.942c0,1.086,0.881,1.967,1.967,1.967h5.123c1.086,0,1.967-0.881,1.967-1.967v-4.942
				c2.122-0.491,4.104-1.326,5.901-2.447l3.495,3.495c0.768,0.768,2.014,0.768,2.783-0.001l3.624-3.628
				c0.768-0.768,0.767-2.013-0.001-2.781l-3.49-3.49c1.114-1.79,1.956-3.779,2.447-5.901h4.935c1.086,0,1.967-0.881,1.967-1.967
				v-5.13C151.826,347.748,150.946,346.867,149.859,346.867z M135.516,354.87c-0.126,0.365-0.272,0.716-0.438,1.061
				c-1.028,2.142-2.771,3.885-4.913,4.913c-0.345,0.166-0.696,0.312-1.054,0.438c-1.087,0.384-2.254,0.59-3.474,0.59
				s-2.387-0.206-3.474-0.59c-0.358-0.126-0.709-0.272-1.054-0.438c-2.142-1.028-3.885-2.772-4.913-4.913
				c-0.166-0.345-0.312-0.696-0.438-1.061c-0.384-1.087-0.59-2.254-0.59-3.468c0-1.22,0.206-2.387,0.59-3.474
				c0.126-0.365,0.272-0.716,0.444-1.061c1.028-2.142,2.765-3.879,4.906-4.906c0.345-0.166,0.696-0.312,1.061-0.438
				c1.087-0.385,2.254-0.59,3.468-0.59c1.213,0,2.38,0.206,3.468,0.59c0.365,0.126,0.716,0.272,1.061,0.438
				c2.142,1.028,3.879,2.765,4.906,4.906c0.172,0.345,0.318,0.696,0.444,1.061c0.384,1.087,0.59,2.254,0.59,3.474
				C136.106,352.616,135.9,353.783,135.516,354.87z"/>
			<path style="fill:#8BD2E7;" d="M103.934,387.086h-3.004c-0.298-1.29-0.806-2.495-1.483-3.587l2.121-2.121
				c0.467-0.467,0.467-1.223,0-1.69l-2.203-2.205c-0.467-0.467-1.224-0.467-1.691,0l-2.124,2.124
				c-1.092-0.681-2.297-1.189-3.587-1.487v-3c0-0.66-0.535-1.195-1.196-1.195h-3.114c-0.66,0-1.196,0.535-1.196,1.195v3
				c-1.29,0.298-2.494,0.806-3.587,1.487l-2.124-2.124c-0.467-0.467-1.224-0.467-1.691,0l-2.203,2.205
				c-0.466,0.467-0.466,1.224,0,1.69l2.121,2.121c-0.677,1.092-1.185,2.297-1.483,3.587h-3.004c-0.66,0-1.196,0.535-1.196,1.196
				v3.118c0,0.66,0.535,1.196,1.196,1.196h3c0.298,1.29,0.81,2.499,1.487,3.587l-2.121,2.121c-0.467,0.467-0.467,1.223,0,1.69
				l2.203,2.205c0.467,0.467,1.224,0.467,1.691,0.001l2.124-2.124c1.092,0.681,2.297,1.189,3.587,1.487v3.004
				c0,0.66,0.535,1.196,1.196,1.196h3.114c0.66,0,1.196-0.535,1.196-1.196v-3.004c1.29-0.298,2.494-0.806,3.587-1.487l2.124,2.124
				c0.467,0.467,1.224,0.467,1.691-0.001l2.203-2.205c0.467-0.467,0.466-1.224,0-1.69l-2.121-2.121
				c0.677-1.088,1.189-2.297,1.487-3.587h3c0.66,0,1.196-0.535,1.196-1.196v-3.118C105.13,387.621,104.594,387.086,103.934,387.086z
				 M95.216,391.95c-0.077,0.222-0.165,0.435-0.266,0.645c-0.625,1.302-1.685,2.362-2.986,2.986
				c-0.21,0.101-0.423,0.189-0.641,0.266c-0.661,0.234-1.37,0.359-2.112,0.359s-1.451-0.125-2.112-0.359
				c-0.218-0.077-0.431-0.165-0.641-0.266c-1.302-0.625-2.361-1.685-2.986-2.986c-0.101-0.21-0.189-0.423-0.266-0.645
				c-0.234-0.661-0.359-1.37-0.359-2.108c0-0.741,0.125-1.451,0.359-2.112c0.077-0.222,0.165-0.435,0.27-0.645
				c0.625-1.302,1.681-2.357,2.982-2.982c0.21-0.101,0.423-0.189,0.645-0.266c0.661-0.234,1.37-0.359,2.108-0.359
				c0.737,0,1.447,0.125,2.108,0.359c0.222,0.077,0.435,0.165,0.645,0.266c1.302,0.625,2.358,1.681,2.982,2.982
				c0.105,0.21,0.193,0.423,0.27,0.645c0.234,0.661,0.359,1.37,0.359,2.112C95.575,390.58,95.45,391.289,95.216,391.95z"/>
			<path style="fill:#2B6B87;" d="M175.802,385.859c0.151-0.777,1.202-1.476,1.202-2.296c0-0.82-1.051-1.519-1.202-2.296
				c-0.158-0.792,0.54-1.843,0.238-2.577c-0.31-0.741-1.548-0.993-1.994-1.656c-0.446-0.662-0.202-1.908-0.77-2.469
				c-0.561-0.569-1.799-0.324-2.469-0.77c-0.662-0.446-0.907-1.684-1.655-1.994c-0.734-0.302-1.785,0.396-2.577,0.238
				c-0.77-0.151-1.476-1.202-2.296-1.202c-0.813,0-1.519,1.051-2.289,1.202c-0.799,0.158-1.85-0.54-2.584-0.238
				c-0.741,0.31-0.986,1.548-1.648,1.994c-0.669,0.446-1.907,0.202-2.476,0.77c-0.561,0.561-0.324,1.807-0.77,2.469
				c-0.439,0.662-1.684,0.914-1.994,1.656c-0.302,0.734,0.396,1.785,0.238,2.577c-0.151,0.777-1.202,1.476-1.202,2.296
				c0,0.821,1.051,1.519,1.202,2.296c0.158,0.792-0.54,1.843-0.238,2.577c0.309,0.741,1.555,0.993,1.994,1.655
				c0.446,0.662,0.201,1.908,0.77,2.469c0.569,0.569,1.807,0.324,2.469,0.77c0.662,0.446,0.914,1.684,1.656,1.994
				c0.734,0.302,1.785-0.396,2.584-0.237c0.77,0.151,1.476,1.202,2.289,1.202c0.821,0,1.526-1.051,2.296-1.202
				c0.792-0.158,1.843,0.54,2.577,0.237c0.748-0.31,0.993-1.548,1.655-1.994c0.669-0.446,1.908-0.202,2.469-0.77
				c0.569-0.561,0.324-1.807,0.77-2.469c0.446-0.662,1.684-0.914,1.994-1.655C176.342,387.702,175.644,386.651,175.802,385.859z
				 M164.278,390.164c-3.642,0-6.6-2.958-6.6-6.601c0-3.642,2.958-6.6,6.6-6.6c3.649,0,6.601,2.958,6.601,6.6
				C170.879,387.205,167.928,390.164,164.278,390.164z"/>
		</g>
		<g>
			<path style="fill:#C6209A;" d="M316.317,79.289h-2.46c-0.244-1.056-0.66-2.043-1.215-2.937l1.737-1.737
				c0.382-0.382,0.382-1.002,0-1.384l-1.804-1.806c-0.382-0.383-1.003-0.383-1.385,0l-1.74,1.74
				c-0.894-0.558-1.881-0.974-2.937-1.218V69.49c0-0.541-0.438-0.979-0.979-0.979h-2.55c-0.541,0-0.979,0.438-0.979,0.979v2.456
				c-1.056,0.244-2.043,0.66-2.937,1.218l-1.74-1.74c-0.383-0.382-1.003-0.382-1.385,0l-1.804,1.806
				c-0.382,0.382-0.382,1.002,0,1.384l1.737,1.737c-0.555,0.894-0.97,1.881-1.215,2.937h-2.46c-0.541,0-0.979,0.438-0.979,0.979
				v2.553c0,0.541,0.438,0.979,0.979,0.979h2.457c0.244,1.056,0.663,2.046,1.218,2.937l-1.737,1.737
				c-0.382,0.382-0.382,1.002,0,1.384l1.804,1.806c0.382,0.383,1.003,0.383,1.385,0l1.74-1.74c0.895,0.558,1.881,0.974,2.937,1.218
				v2.46c0,0.541,0.438,0.979,0.979,0.979h2.55c0.541,0,0.979-0.438,0.979-0.979v-2.46c1.056-0.244,2.043-0.66,2.937-1.218
				l1.74,1.74c0.383,0.383,1.003,0.382,1.385,0l1.804-1.806c0.382-0.382,0.382-1.002,0-1.384l-1.737-1.737
				c0.555-0.891,0.974-1.881,1.218-2.937h2.457c0.541,0,0.979-0.438,0.979-0.979v-2.553
				C317.296,79.728,316.857,79.289,316.317,79.289z M309.177,83.273c-0.063,0.181-0.135,0.356-0.218,0.528
				c-0.512,1.066-1.38,1.934-2.446,2.446c-0.172,0.083-0.346,0.155-0.525,0.218c-0.541,0.191-1.122,0.294-1.729,0.294
				c-0.607,0-1.188-0.102-1.729-0.294c-0.178-0.063-0.353-0.135-0.525-0.218c-1.066-0.512-1.934-1.38-2.446-2.446
				c-0.082-0.172-0.155-0.347-0.218-0.528c-0.191-0.541-0.294-1.122-0.294-1.726c0-0.607,0.102-1.188,0.294-1.729
				c0.063-0.181,0.135-0.356,0.221-0.528c0.512-1.066,1.376-1.931,2.442-2.442c0.172-0.082,0.346-0.155,0.528-0.218
				c0.541-0.192,1.122-0.294,1.726-0.294c0.604,0,1.185,0.102,1.726,0.294c0.181,0.063,0.356,0.135,0.528,0.218
				c1.066,0.511,1.931,1.376,2.442,2.442c0.086,0.172,0.158,0.347,0.221,0.528c0.191,0.541,0.294,1.122,0.294,1.729
				C309.47,82.151,309.368,82.732,309.177,83.273z"/>
			<path style="fill:#7D8EA0;" d="M282.747,74.36c0.213-1.096,1.694-2.079,1.694-3.236s-1.481-2.14-1.694-3.236
				c-0.223-1.116,0.761-2.597,0.335-3.631c-0.436-1.045-2.181-1.4-2.81-2.333c-0.629-0.933-0.284-2.688-1.085-3.479
				c-0.791-0.801-2.536-0.456-3.479-1.085c-0.933-0.629-1.278-2.373-2.333-2.81c-1.035-0.426-2.516,0.558-3.631,0.335
				c-1.085-0.213-2.079-1.694-3.236-1.694c-1.146,0-2.14,1.481-3.225,1.694c-1.126,0.223-2.607-0.761-3.641-0.335
				c-1.045,0.436-1.39,2.181-2.323,2.81c-0.943,0.629-2.688,0.284-3.489,1.085c-0.791,0.791-0.456,2.546-1.085,3.479
				c-0.619,0.933-2.374,1.288-2.81,2.333c-0.426,1.035,0.558,2.515,0.335,3.631c-0.213,1.095-1.694,2.079-1.694,3.236
				s1.481,2.14,1.694,3.236c0.223,1.116-0.761,2.596-0.335,3.631c0.436,1.045,2.191,1.4,2.81,2.333
				c0.629,0.933,0.284,2.688,1.085,3.479c0.801,0.801,2.546,0.457,3.479,1.085c0.933,0.629,1.288,2.373,2.333,2.81
				c1.034,0.426,2.515-0.558,3.641-0.335c1.085,0.213,2.079,1.694,3.225,1.694c1.156,0,2.15-1.481,3.236-1.694
				c1.116-0.223,2.597,0.761,3.631,0.335c1.055-0.436,1.4-2.181,2.333-2.81c0.943-0.629,2.688-0.284,3.479-1.085
				c0.801-0.791,0.457-2.546,1.085-3.479c0.629-0.933,2.374-1.288,2.81-2.333C283.507,76.956,282.524,75.475,282.747,74.36z
				 M266.508,80.425c-5.132,0-9.301-4.169-9.301-9.301s4.169-9.301,9.301-9.301c5.142,0,9.301,4.169,9.301,9.301
				S271.65,80.425,266.508,80.425z"/>
		</g>
		<g>
			<g>
				<rect x="357.324" y="310.478" style="fill:#FEC130;" width="13.968" height="6.667"/>
			</g>
			<g>
				<path style="fill:#C6209A;" d="M372.083,304.811h-15.55c-0.986,0-1.785,0.688-1.785,1.536v2.595
					c0,0.848,0.799,1.536,1.785,1.536h15.55c0.986,0,1.785-0.688,1.785-1.536v-2.595
					C373.868,305.498,373.069,304.811,372.083,304.811z"/>
			</g>
			<g>
				<circle style="fill:#C6209A;" cx="364.308" cy="349.871" r="34.107"/>
			</g>
			<g>
				
					<ellipse transform="matrix(0.2088 -0.978 0.978 0.2088 -53.9142 633.1038)" style="fill:#FEC130;" cx="364.308" cy="349.871" rx="24.273" ry="24.273"/>
			</g>
			<g>
				<path style="fill:#C6209A;" d="M370.318,349.871c0,3.319-2.691,6.01-6.01,6.01c-3.319,0-6.01-2.691-6.01-6.01
					s2.691-6.01,6.01-6.01C367.627,343.861,370.318,346.552,370.318,349.871z"/>
			</g>
			<g>
				<path style="fill:#C6209A;" d="M364.307,351.372c-0.214,0-0.432-0.046-0.638-0.143c-0.749-0.353-1.071-1.246-0.719-1.996
					l8.227-17.486c0.353-0.749,1.246-1.071,1.996-0.719c0.749,0.353,1.071,1.246,0.719,1.996l-8.227,17.486
					C365.41,351.053,364.871,351.372,364.307,351.372z"/>
			</g>
			<g>
				<g>
					<g>
						<path style="fill:#C6209A;" d="M364.308,329.687c-0.553,0-1-0.447-1-1v-6.167c0-0.553,0.447-1,1-1c0.553,0,1,0.447,1,1v6.167
							C365.308,329.24,364.861,329.687,364.308,329.687z"/>
					</g>
					<g>
						<path style="fill:#C6209A;" d="M364.308,378.222c-0.553,0-1-0.447-1-1v-6.166c0-0.553,0.447-1,1-1c0.553,0,1,0.447,1,1v6.166
							C365.308,377.775,364.861,378.222,364.308,378.222z"/>
					</g>
				</g>
				<g>
					<g>
						<path style="fill:#C6209A;" d="M391.659,350.872h-6.167c-0.553,0-1-0.447-1-1c0-0.553,0.447-1,1-1h6.167c0.553,0,1,0.447,1,1
							C392.659,350.424,392.212,350.872,391.659,350.872z"/>
					</g>
					<g>
						<path style="fill:#C6209A;" d="M343.124,350.872h-6.167c-0.553,0-1-0.447-1-1c0-0.553,0.447-1,1-1h6.167c0.553,0,1,0.447,1,1
							C344.124,350.424,343.676,350.872,343.124,350.872z"/>
					</g>
				</g>
			</g>
			<g>
				<g>
					<g>
						<path style="fill:#C6209A;" d="M379.288,335.642c-0.192,0-0.384-0.073-0.53-0.22c-0.293-0.293-0.293-0.768,0-1.061l4.36-4.36
							c0.293-0.293,0.768-0.293,1.061,0s0.293,0.768,0,1.061l-4.36,4.36C379.672,335.569,379.48,335.642,379.288,335.642z"/>
					</g>
					<g>
						<path style="fill:#C6209A;" d="M344.967,369.961c-0.192,0-0.384-0.073-0.53-0.22c-0.293-0.293-0.293-0.768,0-1.06l4.361-4.36
							c0.293-0.293,0.768-0.293,1.061,0c0.293,0.293,0.293,0.768,0,1.061l-4.361,4.36
							C345.351,369.888,345.16,369.961,344.967,369.961z"/>
					</g>
				</g>
				<g>
					<g>
						<path style="fill:#C6209A;" d="M383.648,369.961c-0.192,0-0.384-0.073-0.53-0.22l-4.36-4.36c-0.293-0.293-0.293-0.768,0-1.061
							c0.293-0.293,0.768-0.293,1.061,0l4.36,4.36c0.293,0.293,0.293,0.768,0,1.06C384.032,369.888,383.84,369.961,383.648,369.961z
							"/>
					</g>
					<g>
						<path style="fill:#C6209A;" d="M349.329,335.642c-0.192,0-0.384-0.073-0.53-0.22l-4.361-4.36
							c-0.293-0.293-0.293-0.768,0-1.061s0.768-0.293,1.06,0l4.361,4.36c0.293,0.293,0.293,0.768,0,1.061
							C349.713,335.569,349.521,335.642,349.329,335.642z"/>
					</g>
				</g>
			</g>
		</g>
		<g>
			
				<rect x="436.37" y="166.385" transform="matrix(0.7071 -0.7071 0.7071 0.7071 5.1052 361.544)" style="fill:#FEC130;" width="5.227" height="16.449"/>
			<path style="fill:#C6209A;" d="M437.614,178.982l14.247,14.247c1.586,1.586,4.156,1.586,5.742,0c1.586-1.586,1.586-4.156,0-5.742
				l-14.247-14.247L437.614,178.982z"/>
			<circle style="fill:#7D8EA0;" cx="419.146" cy="154.772" r="22.7"/>
			<circle style="fill:#8BD2E7;" cx="419.146" cy="154.772" r="16.051"/>
			<path style="fill:#FFFFFF;" d="M416.578,143.333c0.933,0.933,0.933,2.446,0,3.379c-0.933,0.933-2.446,0.933-3.379,0
				c-0.933-0.933-0.933-2.446,0-3.379C414.132,142.4,415.645,142.4,416.578,143.333z"/>
			<path style="fill:#FFFFFF;" d="M423.522,143.52c0.663,0.663,0.663,1.739,0,2.403c-0.663,0.663-1.739,0.663-2.403,0
				c-0.663-0.663-0.663-1.739,0-2.403C421.783,142.857,422.859,142.857,423.522,143.52z"/>
		</g>
		<polygon style="fill:#FEC130;" points="394.613,180.26 361.25,211.667 382.428,217.278 367.755,243.951 404.233,210.677 
			381.837,204.743 		"/>
		<polygon style="fill:#FEC130;" points="67.736,235.617 83.141,268.278 92.509,253.774 108.923,271.272 92.877,235.822 
			82.97,251.161 		"/>
		<g>
			<path style="fill:#FEC130;" d="M209.722,45.26l10.981,29.935c0.659,1.796-0.264,3.789-2.06,4.448l-52.895,19.404
				c-1.796,0.659-3.789-0.264-4.447-2.06l-10.981-29.935c-0.315-0.859-0.276-1.759,0.06-2.533c0.352-0.853,1.063-1.571,2-1.915
				L205.274,43.2c0.937-0.344,1.944-0.255,2.764,0.167C208.795,43.74,209.407,44.401,209.722,45.26z"/>
			<path style="fill:#F69C00;" d="M208.038,43.368l-5.383,14.982c-0.446,1.241-1.419,2.221-2.658,2.676l-32.067,11.763
				c-1.238,0.454-2.614,0.336-3.757-0.322l-13.794-7.947c0.352-0.853,1.063-1.571,2-1.915L205.274,43.2
				C206.211,42.856,207.218,42.945,208.038,43.368z"/>
		</g>
		<g>
			<g>
				<g>
					<path style="fill:#FEC130;" d="M348.75,200.641c0.732,22.766-6.365,43.856-18.802,60.768
						c-14.555,19.793-25.559,41.965-33.349,65.266l-3.856,11.533h-82.42l-3.231-9.664c-8.051-24.081-19.351-47.027-34.284-67.563
						c-11.664-16.041-18.545-35.785-18.545-57.134c0-54.146,44.245-97.969,98.563-97.266
						C304.554,107.251,347.087,148.934,348.75,200.641z"/>
					<rect x="210.322" y="338.208" style="fill:#8BD2E7;" width="82.42" height="54.232"/>
					<polygon style="fill:#7D8EA0;" points="273.223,409.45 229.842,409.45 210.322,392.44 292.742,392.44 					"/>
					<path style="fill:#2B6B87;" d="M258.258,424.415h-13.452c-8.265,0-14.965-6.7-14.965-14.965l0,0h43.382l0,0
						C273.223,417.715,266.523,424.415,258.258,424.415z"/>
					<path style="fill:#7D8EA0;" d="M291.037,354.796h-79.01c-3.054,0-5.531-2.476-5.531-5.53l0,0c0-3.054,2.476-5.53,5.531-5.53
						h79.01c3.054,0,5.531,2.476,5.531,5.53l0,0C296.568,352.32,294.092,354.796,291.037,354.796z"/>
					<path style="fill:#7D8EA0;" d="M291.037,371.017h-79.01c-3.054,0-5.531-2.476-5.531-5.531l0,0c0-3.054,2.476-5.53,5.531-5.53
						h79.01c3.054,0,5.531,2.476,5.531,5.53l0,0C296.568,368.541,294.092,371.017,291.037,371.017z"/>
					<path style="fill:#7D8EA0;" d="M291.037,387.238h-79.01c-3.054,0-5.531-2.476-5.531-5.53l0,0c0-3.054,2.476-5.531,5.531-5.531
						h79.01c3.054,0,5.531,2.476,5.531,5.531l0,0C296.568,384.762,294.092,387.238,291.037,387.238z"/>
				</g>
				<path style="fill:#FFFFFF;" d="M308.94,141.428c-2.786,5.708-14.876,5.536-27.004-0.383
					c-12.129-5.919-19.702-15.345-16.917-21.053c2.786-5.708,14.876-5.536,27.004,0.383
					C304.152,126.295,311.726,135.721,308.94,141.428z"/>
				<circle style="fill:#FFFFFF;" cx="322.618" cy="159.61" r="7.456"/>
			</g>
			<g>
				<g>
					
						<path style="fill:#FDAFB3;stroke:#FFFFFF;stroke-width:9;stroke-linecap:round;stroke-linejoin:round;stroke-miterlimit:10;" d="
						M307.132,224.496c0-4.488-1.817-8.551-4.756-11.495c1.519-2.929,2.383-6.252,2.383-9.779c0-11.749-9.525-21.274-21.274-21.274
						c-0.651,0-1.294,0.034-1.93,0.091c-2.745-5.107-8.136-8.581-14.341-8.581c-3.934,0-7.541,1.396-10.354,3.719
						c-2.969-3.945-7.69-6.497-13.008-6.497c-4.379,0-8.351,1.733-11.276,4.547c-2.215-1.129-4.72-1.769-7.376-1.769
						c-6.885,0-12.766,4.278-15.143,10.32c-11.368,0.034-20.573,9.258-20.573,20.634c0,10.142,7.318,18.569,16.96,20.303
						c3.729,6.968,12.255,11.841,22.183,11.841c1.717,0,3.391-0.148,5.007-0.425c2.88,4.589,9.429,8.244,17.735,9.953
						c2.865,5.945,10.369,10.331,19.414,10.888c0.18,0.581,0.411,1.166,0.694,1.751c0.539,1.111,1.367,2.05,2.157,2.999
						c3.355,4.035,6.282,8.939,5.892,14.172c1.477-0.477,2.955-0.954,4.432-1.431c0.444-0.143,0.9-0.293,1.257-0.593
						c1.289-1.081,0.555-3.122,0.056-4.728c-1.465-4.719,0.155-9.844-0.162-14.754c6.177-2.905,10.261-7.919,10.261-13.622
						c0-0.215-0.011-0.428-0.023-0.641C302.15,238.176,307.132,231.923,307.132,224.496z"/>
					<g>
						<path style="fill:#D98490;" d="M295.371,240.766c0-8.986-10.133-16.271-22.632-16.271c-12.5,0-22.632,7.285-22.632,16.271
							c0,8.512,9.094,15.493,20.677,16.206c0.18,0.581,0.411,1.166,0.694,1.751c0.539,1.111,1.367,2.05,2.157,2.999
							c3.355,4.035,6.282,8.939,5.892,14.172c1.477-0.477,2.955-0.954,4.432-1.431c0.444-0.143,0.9-0.293,1.257-0.593
							c1.289-1.081,0.555-3.122,0.056-4.728c-1.465-4.719,0.155-9.844-0.162-14.754
							C291.287,251.483,295.371,246.469,295.371,240.766z"/>
						<path style="fill:#C6209A;" d="M302.376,213.001c1.519-2.929,2.383-6.252,2.383-9.779c0-11.749-9.525-21.274-21.274-21.274
							c-0.651,0-1.294,0.034-1.93,0.091c-2.745-5.107-8.136-8.581-14.341-8.581c-3.934,0-7.541,1.396-10.354,3.719
							c-2.969-3.945-7.69-6.497-13.008-6.497c-4.379,0-8.351,1.733-11.276,4.547c-2.215-1.129-4.72-1.769-7.376-1.769
							c-6.885,0-12.766,4.278-15.143,10.32c-11.368,0.034-20.573,9.258-20.573,20.634c0,10.142,7.318,18.569,16.96,20.303
							c3.729,6.968,12.255,11.841,22.183,11.841c1.717,0,3.391-0.148,5.007-0.425c4.02,6.404,15.165,11.011,28.294,11.011
							c10.165,0,19.139-2.762,24.542-6.98c1.397,0.391,2.868,0.604,4.39,0.604c8.986,0,16.271-7.285,16.271-16.271
							C307.132,220.008,305.315,215.945,302.376,213.001z"/>
						<g>
							<path style="fill:#D98490;" d="M210.515,211.33c-2.635-5.3,1.8-7.785,6.04-9.005c1.686-0.485,3.299-1.033,4.339-2.536
								c1.09-1.575,0.869-2.971,0.767-4.77c-0.187-3.284-0.458-4.994,2.376-7.145c2.189-1.662,5.132-1.961,7.77-2.297
								c1.838-0.234,1.861-3.156,0-2.919c-4.037,0.514-8.313,1.119-11.2,4.288c-1.058,1.162-1.795,2.508-2.068,4.061
								c-0.39,2.223,1.214,6.272-0.879,7.876c-1.472,1.128-4.121,0.917-5.822,1.709c-1.338,0.623-2.457,1.541-3.326,2.743
								c-2.079,2.875-2.042,6.403-0.519,9.467C208.831,214.485,211.35,213.008,210.515,211.33L210.515,211.33z"/>
						</g>
						<g>
							<path style="fill:#D98490;" d="M252.769,185.336c-1.953,2.978-2.344,7.163-1.519,10.616c0.931,3.894,2.854,3.277,5.83,4.611
								c3.934,1.764,3.191,7.195,6.867,9.711c3.755,2.569,8.52,1.857,12.719,1.168c1.849-0.304,1.064-3.117-0.776-2.814
								c-4.717,0.774-10.63,1.371-12.666-4.129c-0.636-1.717-0.539-3.757-1.887-5.18c-1.335-1.409-2.617-1.064-4.257-1.673
								c-4.283-1.592-3.989-7.482-1.791-10.835C256.322,185.234,253.796,183.77,252.769,185.336L252.769,185.336z"/>
						</g>
						<g>
							<path style="fill:#D98490;" d="M219.535,226.377c-2.52-2.535-3.263-5.98-0.906-8.949c1.682-2.119,3.206-1.609,5.622-1.153
								c3.839,0.725,7.75,1.361,11.488-0.208c2.657-1.115,3.214-2.893,4.903-5.033c3.389-4.294,9.195-5.619,13.047-1.091
								c1.219,1.433,3.275-0.64,2.064-2.064c-2.472-2.906-7.137-4.652-10.876-3.48c-2.594,0.813-5.07,2.891-6.692,5.027
								c-0.609,0.802-1.024,1.931-1.718,2.646c-1.983,2.045-5.201,2.223-7.904,1.963c-4.244-0.407-8.724-2.825-11.85,1.087
								c-3.505,4.386-3.139,9.399,0.758,13.318C218.797,229.775,220.861,227.711,219.535,226.377L219.535,226.377z"/>
						</g>
						<g>
							<path style="fill:#D98490;" d="M249.873,218.112c-1.233,7.74,5.618,17.2,14.031,14.58c1.311-0.408,2.198-1.269,3.387-1.85
								c4.701-2.298,7.605,0.283,11.128,2.847c4.852,3.532,7.109-0.236,11.875-1.794c1.777-0.581,1.017-3.401-0.776-2.815
								c-1.52,0.497-2.723,1.469-4.165,2.087c-3.987,1.709-5.081-0.19-8.019-2.224c-2.425-1.679-5.463-2.178-8.376-1.684
								c-2.396,0.406-3.983,2.132-6.265,2.734c-5.844,1.541-10.861-5.723-10.004-11.105
								C252.98,217.05,250.168,216.259,249.873,218.112L249.873,218.112z"/>
						</g>
						<g>
							<path style="fill:#D98490;" d="M277.894,187.725c-0.647,2.594-0.55,5.776,1.925,7.411c1.168,0.772,2.503,0.872,3.86,0.902
								c2.039,0.046,3.726-0.736,4.591,2.614c0.231,0.896-0.115,2.58-0.226,3.403c-0.296,2.198-1.082,4.515,0.593,6.354
								c1.855,2.037,4.997,2.094,7.127,0.546c1.505-1.094,0.05-3.627-1.473-2.52c-1.239,1.151-2.506,0.892-3.8-0.777
								c0.023-0.646,0.098-1.287,0.223-1.922c0.1-0.745,0.248-1.484,0.333-2.232c0.201-1.76,0.319-3.659-0.398-5.328
								c-0.665-1.548-1.817-2.52-3.454-2.954c-0.798-0.212-1.644-0.041-2.443-0.137c-3.277-0.393-4.856-1.324-4.043-4.583
								C281.163,186.678,278.349,185.901,277.894,187.725L277.894,187.725z"/>
						</g>
						<g>
							<path style="fill:#D98490;" d="M229.103,203.449c0.303-1.701,0.606-3.402,0.91-5.103c0.676-0.441,1.352-0.882,2.029-1.323
								c1.165-0.295,1.458,0.03,2.399,0.212c0.901,0.174,1.69,0.652,2.632,0.719c2.226,0.158,4.152-1.043,5.51-2.758
								c1.225-1.547,1.754-3.278,1.5-5.235c-0.463-3.573-2.75-5.614,1.64-7.798c1.682-0.837,0.205-3.355-1.473-2.52
								c-2.556,1.271-4.728,2.917-4.424,6.009c0.143,1.462,1.043,2.718,1.258,4.146c0.481,3.187-1.781,5.454-4.908,4.955
								c-2.956-0.472-4.545-1.239-7.268,0.724c-3.256,2.347-4.459,5.937-2.326,9.445
								C227.558,206.525,230.083,205.06,229.103,203.449L229.103,203.449z"/>
						</g>
						<g>
							<path style="fill:#D98490;" d="M227.888,229.425c2.956-2.051,8.492-5.226,10.706-0.32c0.82,1.816,0.741,3.425,2.12,5.086
								c2.413,2.906,5.936,3.914,9.558,3.378c1.851-0.274,1.064-3.087-0.776-2.814c-4.859,0.72-6.844-2.502-8.088-6.425
								c-0.578-1.822-0.868-3.301-2.74-4.254c-3.821-1.943-9.138,0.667-12.253,2.829
								C224.882,227.968,226.339,230.499,227.888,229.425L227.888,229.425z"/>
						</g>
						<g>
							<path style="fill:#D98490;" d="M199.936,210.772c-1.796-2.674-2.946-6.111-1.123-9.117c1.831-3.019,4.938-2.265,7.673-3.574
								c2.78-1.331,3.67-4.285,2.92-7.111c-0.481-1.814-3.298-1.045-2.815,0.776c1.23,4.633-5.023,4.066-7.284,5.405
								c-1.544,0.914-2.741,2.321-3.487,3.947c-1.728,3.765-0.611,7.864,1.595,11.148
								C198.457,213.797,200.987,212.337,199.936,210.772L199.936,210.772z"/>
						</g>
						<g>
							<path style="fill:#D98490;" d="M260.758,216.725c2.645,4.611,9.043,6.113,13.982,6.404c2.741,0.161,4.985-0.526,7.437-1.713
								c1.572-0.761,3.174-1.951,4.873-2.394c3.955-1.031,7.629,2.608,6.331,6.725c-0.566,1.796,2.251,2.564,2.815,0.776
								c1.606-5.098-2.773-11.93-8.557-10.766c-4.036,0.812-7.152,4.239-11.36,4.52c-4.096,0.273-10.834-1.25-13-5.025
								C262.344,213.623,259.821,215.092,260.758,216.725L260.758,216.725z"/>
						</g>
						<g>
							<path style="fill:#D98490;" d="M272.809,198.425c-2.504-1.545-5.075-3.827-4.725-7.085c0.337-3.138,2.807-3.165,4.431-5.209
								c1.581-1.989,1.453-4.648,0.08-6.681c-1.045-1.549-3.575-0.089-2.52,1.473c2.119,3.139-2.257,4.452-3.722,6.595
								c-0.908,1.329-1.307,3.001-1.258,4.602c0.121,3.964,3.079,6.873,6.242,8.825
								C272.939,201.935,274.407,199.411,272.809,198.425L272.809,198.425z"/>
						</g>
						<g>
							<path style="fill:#FDAFB3;" d="M262.865,251.908c8.428,0.591,17.785-1.806,24.864-6.487c1.56-1.031,0.1-3.56-1.473-2.52
								c-6.665,4.406-15.462,6.644-23.391,6.088C260.991,248.858,260.999,251.777,262.865,251.908L262.865,251.908z"/>
						</g>
						<g>
							<path style="fill:#FDAFB3;" d="M275.317,256.053c2.75-0.485,5.169-1.314,7.669-2.556c1.682-0.836,0.205-3.354-1.473-2.52
								c-2.277,1.131-4.469,1.82-6.972,2.262C272.694,253.564,273.477,256.378,275.317,256.053L275.317,256.053z"/>
						</g>
					</g>
				</g>
				<g>
					<g>
						<g>
							<path style="fill:#F69C00;" d="M177.731,204.722h-14.107c-1.075,0-1.946-0.871-1.946-1.946s0.871-1.946,1.946-1.946h14.107
								c1.075,0,1.946,0.871,1.946,1.946S178.806,204.722,177.731,204.722z"/>
						</g>
						<g>
							<path style="fill:#F69C00;" d="M334.737,204.722H320.63c-1.075,0-1.946-0.871-1.946-1.946s0.871-1.946,1.946-1.946h14.107
								c1.075,0,1.946,0.871,1.946,1.946S335.812,204.722,334.737,204.722z"/>
						</g>
					</g>
					<g>
						<g>
							<path style="fill:#F69C00;" d="M203.749,158.63c-0.498,0-0.996-0.19-1.376-0.57l-9.975-9.976c-0.76-0.76-0.76-1.992,0-2.751
								c0.759-0.76,1.992-0.76,2.752,0l9.975,9.976c0.76,0.76,0.76,1.992,0,2.752C204.745,158.44,204.247,158.63,203.749,158.63z"/>
						</g>
						<g>
							<path style="fill:#F69C00;" d="M314.769,269.65c-0.498,0-0.996-0.19-1.376-0.57l-9.975-9.975c-0.76-0.76-0.76-1.991,0-2.751
								s1.992-0.76,2.752,0l9.975,9.975c0.76,0.76,0.76,1.992,0,2.752C315.764,269.459,315.266,269.65,314.769,269.65z"/>
						</g>
					</g>
					<g>
						<g>
							<path style="fill:#F69C00;" d="M250.678,141.154c-1.075,0-1.946-0.871-1.946-1.946v-14.107c0-1.075,0.871-1.946,1.946-1.946
								c1.075,0,1.945,0.871,1.945,1.946v14.107C252.623,140.283,251.753,141.154,250.678,141.154z"/>
						</g>
						<g>
							<path style="fill:#F69C00;" d="M250.678,298.159c-1.075,0-1.946-0.871-1.946-1.946v-14.107c0-1.075,0.871-1.946,1.946-1.946
								c1.075,0,1.945,0.871,1.945,1.946v14.107C252.623,297.288,251.753,298.159,250.678,298.159z"/>
						</g>
					</g>
					<g>
						<g>
							<path style="fill:#F69C00;" d="M304.793,160.671c-0.498,0-0.996-0.19-1.376-0.57c-0.76-0.76-0.76-1.992,0-2.752l9.975-9.976
								c0.76-0.76,1.991-0.76,2.751,0c0.76,0.76,0.76,1.992,0,2.752l-9.975,9.976C305.789,160.481,305.291,160.671,304.793,160.671z
								"/>
						</g>
						<g>
							<path style="fill:#F69C00;" d="M193.774,271.69c-0.498,0-0.996-0.19-1.376-0.57c-0.76-0.76-0.76-1.991,0-2.751l9.975-9.975
								c0.759-0.76,1.992-0.76,2.751,0c0.76,0.76,0.76,1.991,0,2.752l-9.975,9.975C194.77,271.5,194.272,271.69,193.774,271.69z"/>
						</g>
					</g>
				</g>
			</g>
		</g>
		<g>
			<g>
				<path style="fill:#A81A8A;" d="M39.855,294.63l-5.459,5.458c-1.026,1.026-1.026,2.69,0,3.716l34.75,34.749l7.316-7.316
					L39.855,294.63z"/>
			</g>
			<g>
				
					<rect x="45.543" y="277.727" transform="matrix(0.7071 -0.7071 0.7071 0.7071 -193.6479 135.3677)" style="fill:#C6209A;" width="42.073" height="47.421"/>
			</g>
			<g>
				<path style="fill:#FEC130;" d="M99.531,308.169c0.837,0.837,1.926,1.261,3.025,1.271l-28.409,28.409
					c-0.766,0.766-1.946,0.978-2.915,0.494c-0.383-0.202-0.756-0.474-1.079-0.797c-0.333-0.333-0.595-0.696-0.807-1.089
					c-0.484-0.968-0.272-2.148,0.494-2.914l28.409-28.409C98.26,306.233,98.684,307.322,99.531,308.169z"/>
			</g>
			<g>
				<path style="fill:#E52CBD;" d="M69.843,333.541c-0.767,0.767-0.987,1.949-0.49,2.913c0.202,0.392,0.469,0.761,0.801,1.092
					c0.328,0.328,0.694,0.592,1.085,0.793c0.963,0.496,2.144,0.275,2.91-0.491l29.295-29.295l0.918,0.918l-29.074,29.074
					c-0.857,0.857-1.987,1.281-3.116,1.281c-1.099-0.01-2.188-0.434-3.025-1.271c-0.847-0.847-1.271-1.936-1.281-3.035
					c0-0.02,0-0.02,0-0.04c0.01-1.119,0.434-2.229,1.281-3.076l29.074-29.074l0.918,0.918L69.843,333.541z"/>
			</g>
			<g>
				<path style="fill:#F69C00;" d="M97.299,311.147l-24.624,24.624c-0.209,0.209-0.548,0.209-0.756,0
					c-0.209-0.209-0.209-0.548,0-0.756l24.624-24.624c0.209-0.209,0.548-0.209,0.756,0S97.508,310.938,97.299,311.147z"/>
			</g>
			<g>
				<polygon style="fill:#7D8EA0;" points="84.354,337.028 82.169,337.196 82,339.381 75.155,332.535 77.508,330.182 				"/>
			</g>
			<g>
				
					<rect x="51.83" y="295.483" transform="matrix(0.7071 -0.7071 0.7071 0.7071 -192.4122 132.3844)" style="fill:#FFFFFF;" width="23.532" height="5.942"/>
			</g>
		</g>
	</g>
</g>
<g id="DESIGNED_BY_FREEPIK">
	<g>
		<g id="XMLID_29_">
			<g id="XMLID_48_">
				<path id="XMLID_56_" style="fill:#122129;" d="M260.104,466.161c-0.432,0.443-0.803,0.931-1.108,1.453l-0.465-0.241
					c-0.067-0.298-0.349-0.503-0.659-0.466c-0.331,0.039-0.568,0.339-0.529,0.67c0.039,0.331,0.339,0.568,0.67,0.529
					c0.065-0.008,0.127-0.026,0.183-0.052l0.452,0.234c-0.251,0.554-0.433,1.139-0.539,1.744l0.747,0.132
					c0.23-1.306,0.85-2.507,1.792-3.473L260.104,466.161z"/>
				<path id="XMLID_55_" style="fill:#122129;" d="M265.592,463.859c-0.171,0-0.341,0.006-0.51,0.017l-0.074-0.626
					c0.188-0.149,0.296-0.389,0.266-0.645c-0.046-0.393-0.402-0.674-0.795-0.628c-0.393,0.046-0.674,0.402-0.628,0.795
					c0.03,0.254,0.189,0.461,0.405,0.564l0.073,0.624c-0.714,0.116-1.403,0.332-2.06,0.646l0.327,0.684
					c0.934-0.447,1.942-0.673,2.995-0.673c0.496,0,0.993,0.053,1.475,0.158l0.161-0.741
					C266.692,463.918,266.142,463.859,265.592,463.859z"/>
				<path id="XMLID_54_" style="fill:#122129;" d="M272.194,466.406c0.331-0.04,0.566-0.341,0.526-0.672
					c-0.04-0.331-0.341-0.566-0.672-0.526c-0.309,0.038-0.535,0.304-0.53,0.609l-0.416,0.363c-0.418-0.43-0.89-0.813-1.408-1.139
					l-0.404,0.641c1.134,0.715,2.021,1.726,2.563,2.925l0.691-0.313c-0.251-0.554-0.568-1.072-0.942-1.545l0.402-0.351
					C272.065,466.411,272.129,466.414,272.194,466.406z"/>
				<path id="XMLID_53_" style="fill:#122129;" d="M265.044,474.068c-0.386,0.023-0.775,0.035-1.157,0.035
					c-0.88,0-1.733-0.061-2.478-0.179c-0.39-0.062-0.846-0.155-1.27-0.292c1.046,1.861,3.069,3.125,5.388,3.125
					c2.855,0,5.262-1.916,5.95-4.504c-0.682,0.449-1.505,0.825-2.459,1.123C267.839,473.743,266.464,473.982,265.044,474.068z"/>
				<path id="XMLID_49_" style="fill:#122129;" d="M265.592,465.375c-3.352,0-6.08,2.666-6.08,5.943
					c0,0.426,0.046,0.849,0.137,1.261c0.673,0.483,2.706,0.89,5.348,0.731c2.879-0.173,5.297-0.957,6.672-2.159
					c-0.005-0.195-0.021-0.39-0.045-0.582C271.244,467.609,268.65,465.375,265.592,465.375z M263.432,471.89
					c-1.02,0-1.85-0.83-1.85-1.85c0-1.02,0.83-1.85,1.85-1.85c1.02,0,1.85,0.83,1.85,1.85
					C265.282,471.06,264.452,471.89,263.432,471.89z M268.17,470.982c-0.75,0-1.36-0.61-1.36-1.36s0.61-1.361,1.36-1.361
					c0.75,0,1.361,0.61,1.361,1.361S268.92,470.982,268.17,470.982z"/>
			</g>
			<path id="XMLID_46_" style="fill:#122129;" d="M281.595,467.242c-0.295-0.116-0.805-0.309-1.382-0.237
				c-0.551,0.069-0.844,0.341-0.844,1.007v0.866h2.228v1.717h-2.228v5.455h-1.932v-5.455h-1.34v-1.717h1.34v-0.888
				c0-1.68,0.896-2.783,2.568-2.783c0.643,0,1.157,0.122,1.59,0.308L281.595,467.242z"/>
			<path id="XMLID_44_" style="fill:#122129;" d="M286.298,470.574c-0.177-0.03-0.358-0.046-0.526-0.046
				c-0.896,0-1.51,0.548-1.51,1.614v3.908h-1.932v-7.172h1.873v0.785c0.451-0.673,1.14-0.977,2.021-0.977
				c0.414,0,0.848,0.128,1.094,0.337L286.298,470.574z"/>
			<path id="XMLID_41_" style="fill:#122129;" d="M293.965,472.453c0,0.222-0.015,0.489-0.037,0.651h-5.085
				c0.207,1.036,0.933,1.488,1.843,1.488c0.622,0,1.295-0.252,1.813-0.688l1.132,1.243c-0.814,0.748-1.85,1.088-3.057,1.088
				c-2.198,0-3.723-1.495-3.723-3.753c0-2.258,1.48-3.797,3.627-3.797C292.544,468.685,293.958,470.217,293.965,472.453z
				 M288.851,471.786h3.175c-0.177-0.918-0.733-1.436-1.562-1.436C289.554,470.351,289.021,470.898,288.851,471.786z"/>
			<path id="XMLID_38_" style="fill:#122129;" d="M301.618,472.453c0,0.222-0.015,0.489-0.037,0.651h-5.085
				c0.207,1.036,0.933,1.488,1.843,1.488c0.622,0,1.295-0.252,1.813-0.688l1.132,1.243c-0.814,0.748-1.85,1.088-3.057,1.088
				c-2.198,0-3.723-1.495-3.723-3.753c0-2.258,1.48-3.797,3.627-3.797C300.197,468.685,301.611,470.217,301.618,472.453z
				 M296.504,471.786h3.175c-0.178-0.918-0.733-1.436-1.562-1.436C297.207,470.351,296.674,470.898,296.504,471.786z"/>
			<path id="XMLID_35_" style="fill:#122129;" d="M309.964,472.46c0,2.154-1.495,3.775-3.471,3.775
				c-0.962,0-1.643-0.378-2.109-0.933v3.708h-1.924v-10.133h1.887v0.792c0.466-0.585,1.155-0.984,2.139-0.984
				C308.469,468.685,309.964,470.306,309.964,472.46z M304.287,472.46c0,1.132,0.747,1.976,1.843,1.976
				c1.14,0,1.85-0.881,1.85-1.976c0-1.095-0.71-1.976-1.85-1.976C305.035,470.484,304.287,471.328,304.287,472.46z"/>
			<path id="XMLID_32_" style="fill:#122129;" d="M313.068,466.531c0,0.696-0.54,1.229-1.236,1.229
				c-0.696,0-1.229-0.533-1.229-1.229c0-0.696,0.533-1.243,1.229-1.243C312.527,465.288,313.068,465.836,313.068,466.531z
				 M312.809,476.05h-1.932v-7.172h1.932V476.05z"/>
			<path id="XMLID_30_" style="fill:#122129;" d="M316.032,471.431l2.701-2.554h2.368l-3.479,3.375l3.501,3.797h-2.376l-2.716-2.901
				v2.901H314.1v-10.658h1.932V471.431z"/>
		</g>
		<g>
			<path style="fill:#122129;" d="M184.412,475.985v-1.055c-0.527,0.718-1.391,1.23-2.387,1.23c-1.846,0-3.149-1.406-3.149-3.706
				c0-2.256,1.289-3.721,3.149-3.721c0.952,0,1.816,0.469,2.387,1.245v-3.765h1.099v9.77H184.412z M184.412,474.066v-3.208
				c-0.395-0.615-1.245-1.143-2.124-1.143c-1.421,0-2.27,1.172-2.27,2.739c0,1.567,0.85,2.724,2.27,2.724
				C183.168,475.179,184.017,474.681,184.412,474.066z"/>
			<path style="fill:#122129;" d="M186.932,472.44c0-2.051,1.465-3.706,3.486-3.706c2.139,0,3.398,1.67,3.398,3.794v0.279h-5.727
				c0.088,1.333,1.025,2.446,2.549,2.446c0.805,0,1.626-0.322,2.182-0.894l0.527,0.718c-0.703,0.703-1.655,1.084-2.812,1.084
				C188.44,476.16,186.932,474.652,186.932,472.44z M190.403,469.642c-1.509,0-2.256,1.274-2.314,2.358h4.643
				C192.718,470.946,192.015,469.642,190.403,469.642z"/>
			<path style="fill:#122129;" d="M194.607,475.047l0.571-0.791c0.469,0.542,1.362,1.011,2.329,1.011c1.084,0,1.67-0.513,1.67-1.216
				c0-1.714-4.38-0.659-4.38-3.281c0-1.098,0.952-2.036,2.636-2.036c1.201,0,2.051,0.454,2.622,1.026l-0.513,0.762
				c-0.424-0.513-1.201-0.894-2.109-0.894c-0.967,0-1.567,0.483-1.567,1.113c0,1.552,4.38,0.527,4.38,3.281
				c0,1.187-0.952,2.138-2.783,2.138C196.306,476.16,195.325,475.809,194.607,475.047z"/>
			<path style="fill:#122129;" d="M201.477,467.167c0-0.41,0.337-0.747,0.732-0.747c0.41,0,0.747,0.337,0.747,0.747
				c0,0.41-0.337,0.732-0.747,0.732C201.814,467.899,201.477,467.577,201.477,467.167z M201.667,475.985v-7.075h1.099v7.075H201.667
				z"/>
			<path style="fill:#122129;" d="M204.582,477.801l0.556-0.82c0.586,0.703,1.289,0.967,2.3,0.967c1.172,0,2.27-0.571,2.27-2.124
				v-1.011c-0.513,0.718-1.377,1.26-2.373,1.26c-1.845,0-3.149-1.377-3.149-3.662c0-2.27,1.289-3.677,3.149-3.677
				c0.952,0,1.802,0.469,2.373,1.245v-1.069h1.098v6.87c0,2.344-1.641,3.076-3.369,3.076
				C206.237,478.856,205.417,478.621,204.582,477.801z M209.709,473.949v-3.091c-0.381-0.615-1.23-1.143-2.109-1.143
				c-1.421,0-2.27,1.128-2.27,2.695c0,1.553,0.849,2.695,2.27,2.695C208.478,475.106,209.328,474.564,209.709,473.949z"/>
			<path style="fill:#122129;" d="M217.413,475.985v-4.629c0-1.245-0.63-1.641-1.582-1.641c-0.865,0-1.685,0.527-2.095,1.099v5.17
				h-1.099v-7.075h1.099v1.025c0.498-0.586,1.465-1.201,2.519-1.201c1.48,0,2.256,0.747,2.256,2.285v4.966H217.413z"/>
			<path style="fill:#122129;" d="M219.932,472.44c0-2.051,1.465-3.706,3.486-3.706c2.139,0,3.398,1.67,3.398,3.794v0.279h-5.727
				c0.088,1.333,1.025,2.446,2.549,2.446c0.806,0,1.626-0.322,2.183-0.894l0.527,0.718c-0.703,0.703-1.655,1.084-2.812,1.084
				C221.441,476.16,219.932,474.652,219.932,472.44z M223.404,469.642c-1.509,0-2.256,1.274-2.314,2.358h4.643
				C225.718,470.946,225.015,469.642,223.404,469.642z"/>
			<path style="fill:#122129;" d="M233.35,475.985v-1.055c-0.527,0.718-1.392,1.23-2.388,1.23c-1.846,0-3.149-1.406-3.149-3.706
				c0-2.256,1.289-3.721,3.149-3.721c0.952,0,1.817,0.469,2.388,1.245v-3.765h1.098v9.77H233.35z M233.35,474.066v-3.208
				c-0.396-0.615-1.245-1.143-2.124-1.143c-1.421,0-2.27,1.172-2.27,2.739c0,1.567,0.849,2.724,2.27,2.724
				C232.105,475.179,232.954,474.681,233.35,474.066z"/>
			<path style="fill:#122129;" d="M239.692,475.985v-9.77h1.098v3.765c0.572-0.776,1.421-1.245,2.388-1.245
				c1.845,0,3.149,1.465,3.149,3.721c0,2.299-1.304,3.706-3.149,3.706c-0.996,0-1.86-0.513-2.388-1.23v1.055H239.692z
				 M242.9,475.179c1.436,0,2.285-1.157,2.285-2.724c0-1.568-0.85-2.739-2.285-2.739c-0.864,0-1.728,0.527-2.109,1.143v3.208
				C241.171,474.681,242.036,475.179,242.9,475.179z"/>
			<path style="fill:#122129;" d="M247.528,477.757c0.161,0.073,0.425,0.117,0.601,0.117c0.483,0,0.805-0.161,1.055-0.747
				l0.469-1.069l-2.959-7.148h1.187l2.358,5.8l2.344-5.8h1.201l-3.545,8.51c-0.425,1.025-1.143,1.421-2.08,1.435
				c-0.234,0-0.601-0.044-0.806-0.103L247.528,477.757z"/>
		</g>
	</g>
</g>
</svg>
